<svg viewBox="0 0 300 300" xmlns="http://www.w3.org/2000/svg" xmlns:serif="http://www.serif.com/" fill-rule="evenodd" clip-rule="evenodd" stroke-linejoin="round" stroke-miterlimit="1.41421">
  <path class="ribbon" id="ribbon" d="M201.046 255.316l25.388 25.388 73.15-73.149-25.389-25.389-73.149 73.15z" fill="#f1f1f1"/>
  <path class="ribbon" id="ribbon1" serif:id="ribbon" d="M73.174 55.2V19.296h214.898V55.2H73.174z" fill="#f1f1f1"/>
  <path class="ribbon" id="ribbon2" serif:id="ribbon" fill="#f1f1f1" d="M252.168 19.296h35.874v150.929h-35.874z"/>
  <path id="symbol" d="M91.585 84.03h28.529c6.433 0 11.338.476 14.713 1.429 4.535 1.293 8.419 3.589 11.654 6.889 3.234 3.3 5.695 7.34 7.383 12.119 1.687 4.78 2.531 10.674 2.531 17.682 0 6.157-.791 11.464-2.373 15.921-1.934 5.443-4.694 9.848-8.279 13.216-2.707 2.551-6.364 4.542-10.969 5.97-3.445 1.055-8.051 1.582-13.816 1.582H91.585V84.03zm15.609 12.655v49.549h11.654c4.36 0 7.506-.238 9.44-.714 2.531-.613 4.631-1.65 6.301-3.113s3.033-3.87 4.087-7.221c1.055-3.35 1.582-7.917 1.582-13.701 0-5.783-.527-10.222-1.582-13.318-1.054-3.096-2.531-5.511-4.429-7.246-1.899-1.735-4.307-2.909-7.225-3.521-2.18-.477-6.451-.715-12.814-.715h-7.014z" fill="#262626" fill-rule="nonzero"/>
  <path class="ribbon" id="ribbon3" serif:id="ribbon" d="M0 92.445l25.388 25.389 73.15-73.15L73.15 19.296 0 92.445z" fill="#f1f1f1"/>
  <path class="ribbon" id="ribbon4" serif:id="ribbon" d="M288.042 170.225V134.32H226.85v35.905h61.192z" fill="#f1f1f1"/>
  <g id="Frame" fill="#262626">
    <path id="frame_left" d="M39.998 32.66h35.904v234.68H39.998z"/>
    <path id="bottom" d="M274.678 267.34v-35.905H39.998v35.905h234.68z"/>
    <path id="frame_right" d="M238.773 32.66h35.904v234.68h-35.904z"/>
    <path id="frame_top" d="M274.678 68.565V32.66H39.998v35.905h234.68z"/>
  </g>
  <path class="ribbon" id="ribbon5" serif:id="ribbon" d="M274.612 232.858L300 207.469l-73.15-73.149-25.388 25.388 73.15 73.15z" fill="#f1f1f1"/>
  <path class="ribbon" id="ribbon6" serif:id="ribbon" d="M25.388 67.112L0 92.5l73.15 73.15 25.388-25.388-73.15-73.15z" fill="#f1f1f1"/>
</svg>
